<?xml version="1.0" encoding="iso-8859-1"?>
<!-- Generator: Adobe Illustrator 19.0.0, SVG Export Plug-In . SVG Version: 6.00 Build 0)  -->
<svg version="1.1" id="Capa_1" xmlns="http://www.w3.org/2000/svg" xmlns:xlink="http://www.w3.org/1999/xlink" x="0px" y="0px"
	 viewBox="0 0 512 512" style="enable-background:new 0 0 512 512;" xml:space="preserve">
<polygon style="fill:#F9D366;" points="504.392,471.112 7.608,471.112 79.139,347.22 94.922,319.873 146.999,229.678 
	176.404,178.748 256,40.888 335.596,178.748 365.001,229.678 417.078,319.873 432.861,347.21 "/>
<path style="fill:#DD8833;" d="M432.861,347.21c-42.643,39.458-106.05,64.462-176.861,64.462S121.782,386.668,79.139,347.22
	l15.783-27.347l52.076-90.195c32.51-13.673,69.604-21.403,109.001-21.403s76.502,7.739,109.001,21.403l52.076,90.195L432.861,347.21
	z"/>
<path style="fill:#EDE6F5;" d="M464.113,269.399C425.973,329.692,347.118,371.098,256,371.098c-30.694,0-59.988-4.696-86.808-13.237
	c-52.817-16.798-96.018-48.475-121.315-88.461c26.251-41.497,71.785-74.047,127.331-90.307
	c25.166-7.364,52.381-11.391,80.792-11.391C347.118,167.701,425.974,209.107,464.113,269.399z"/>
<path style="fill:#CEC1E8;" d="M169.192,357.86c-52.817-16.798-96.018-48.475-121.315-88.461
	c26.251-41.497,71.785-74.047,127.331-90.307l9.91,15.083C185.118,194.176,113.028,270.941,169.192,357.86z"/>
<path style="fill:#4E4F75;" d="M341.509,250.705c0,47.157-38.231,85.387-85.387,85.387c-47.167,0-85.398-38.231-85.398-85.387
	c0-0.284,0-0.578,0.01-0.862c0.091-10.296,2.019-20.165,5.467-29.284l30.724-20.358l49.074-32.5l49.216,32.53l30.826,20.368
	c3.449,9.119,5.366,18.978,5.457,29.284C341.509,250.157,341.509,250.431,341.509,250.705z"/>
<path style="fill:#32314C;" d="M341.499,249.883c-26.464-4.453-55.302-6.908-85.499-6.908c-30.106,0-58.862,2.434-85.266,6.867
	c0.091-10.296,2.019-20.165,5.467-29.284l30.724-20.358c15.814-2.688,32.236-4.098,49.074-4.098c16.889,0,33.352,1.42,49.216,4.128
	l30.826,20.368C339.491,229.718,341.408,239.578,341.499,249.883z"/>
<path style="fill:#FFC9BD;" d="M464.113,269.399C425.973,236.9,347.118,214.574,256,214.574c-31.191,0-60.952,2.617-88.126,7.354
	c-52.208,9.119-94.912,26.099-119.997,47.471c29.325-46.355,82.71-81.543,147.232-95.328c0.01-0.01,0.02-0.01,0.02-0.01
	c19.394-4.149,39.803-6.36,60.871-6.36C347.118,167.701,425.974,209.107,464.113,269.399z"/>
<path style="fill:#FCAFA2;" d="M167.874,221.928c-52.208,9.119-94.912,26.099-119.997,47.471
	c29.325-46.355,82.71-81.543,147.232-95.328C193.953,174.426,149.859,188.262,167.874,221.928z"/>
<circle style="fill:#75688E;" cx="296.695" cy="275.323" r="22.316"/>
<path d="M187.704,159.176c3.636,2.101,8.291,0.854,10.392-2.784L256,56.103l57.903,100.288c1.41,2.441,3.966,3.805,6.595,3.805
	c1.29,0,2.6-0.329,3.797-1.02c3.638-2.101,4.885-6.753,2.784-10.392l-64.491-111.7c-1.359-2.353-3.87-3.804-6.588-3.804
	s-5.229,1.449-6.588,3.804l-64.492,111.7C182.818,152.422,184.066,157.075,187.704,159.176z"/>
<path d="M510.981,467.308l-71.528-123.894c-2.1-3.638-6.756-4.885-10.392-2.784c-3.638,2.101-4.885,6.754-2.784,10.392
	l64.94,112.483H161.545c-4.202,0-7.608,3.406-7.608,7.608s3.405,7.608,7.608,7.608h342.847c2.718,0,5.229-1.451,6.588-3.804
	C512.34,472.562,512.34,469.662,510.981,467.308z"/>
<path d="M136.186,463.504H20.784l64.944-112.491c2.101-3.638,0.854-8.291-2.784-10.392c-3.64-2.102-8.292-0.854-10.392,2.784
	L1.019,467.308c-1.359,2.354-1.359,5.254,0,7.608c1.359,2.353,3.87,3.804,6.588,3.804h128.578c4.202,0,7.608-3.406,7.608-7.608
	S140.387,463.504,136.186,463.504z"/>
<path d="M41.447,265.335c-1.572,2.483-1.572,5.65,0,8.134c19.769,31.253,49.932,57.603,87.225,76.199
	c38.099,18.998,82.126,29.04,127.322,29.04s89.225-10.042,127.322-29.04c37.294-18.597,67.457-44.947,87.225-76.199
	c1.572-2.483,1.572-5.65,0-8.134c-19.769-31.254-49.932-57.603-87.225-76.201c-38.099-18.998-82.126-29.04-127.322-29.04
	s-89.225,10.042-127.322,29.04C91.379,207.732,61.217,234.081,41.447,265.335z M376.528,336.052
	c-36,17.952-77.679,27.441-120.532,27.441s-84.532-9.489-120.532-27.441c-32.513-16.213-59.119-38.626-77.39-65.066
	c24.305-18.292,62.504-32.516,107.315-40.775c-1.506,6.688-2.273,13.541-2.273,20.494c0,51.278,41.722,92.995,93.005,92.995
	c26.14,0,51.222-11.098,68.819-30.45c2.827-3.109,2.599-7.92-0.51-10.747s-7.922-2.6-10.747,0.51
	c-14.719,16.187-35.699,25.47-57.562,25.47c-42.894,0-77.79-34.891-77.79-77.78c0-7.948,1.2-15.737,3.542-23.219
	c23.545-3.454,48.571-5.307,74.123-5.307c25.643,0,50.756,1.867,74.375,5.346c2.335,7.462,3.531,15.236,3.531,23.182
	c0,12.023-2.667,23.546-7.925,34.249c-1.852,3.771-0.298,8.33,3.473,10.183c1.079,0.529,2.222,0.781,3.349,0.781
	c2.81,0,5.512-1.563,6.834-4.254c6.293-12.809,9.485-26.589,9.485-40.959c0-6.941-0.764-13.78-2.263-20.447
	c44.703,8.266,82.806,22.472,107.065,40.729C435.647,297.426,409.041,319.839,376.528,336.052z M135.464,202.751
	c36-17.952,77.679-27.441,120.532-27.441s84.532,9.489,120.532,27.441c19.926,9.937,37.62,22.212,52.556,36.303
	c-44.362-20.256-106.33-32.091-173.089-32.091S127.27,218.798,82.907,239.054C97.844,224.963,115.538,212.688,135.464,202.751z"/>
<path d="M391.431,146.106c1.947,0,3.894-0.742,5.38-2.229l77.593-77.593c2.971-2.971,2.971-7.788,0-10.758
	c-2.972-2.971-7.788-2.971-10.759,0l-77.593,77.593c-2.971,2.971-2.971,7.788,0,10.758
	C387.538,145.364,389.486,146.106,391.431,146.106z"/>
<path d="M403.603,164.363c-4.202,0-7.608,3.406-7.608,7.608c0,4.201,3.405,7.608,7.608,7.608h68.465
	c4.202,0,7.608-3.406,7.608-7.608c0-4.201-3.405-7.608-7.608-7.608H403.603z"/>
<path d="M367.088,120.242c4.202,0,7.608-3.406,7.608-7.608V54.819c0-4.201-3.405-7.608-7.608-7.608s-7.608,3.406-7.608,7.608v57.816
	C359.48,116.836,362.886,120.242,367.088,120.242z"/>
<path d="M115.189,143.878c1.486,1.485,3.434,2.229,5.38,2.229s3.894-0.742,5.38-2.229c2.971-2.971,2.971-7.788,0-10.758
	L48.354,55.526c-2.972-2.971-7.788-2.971-10.759,0s-2.971,7.788,0,10.758L115.189,143.878z"/>
<path d="M39.932,179.578h68.464c4.202,0,7.608-3.406,7.608-7.608c0-4.201-3.405-7.608-7.608-7.608H39.932
	c-4.202,0-7.608,3.406-7.608,7.608C32.324,176.172,35.73,179.578,39.932,179.578z"/>
<path d="M144.91,120.242c4.202,0,7.608-3.406,7.608-7.608V54.819c0-4.201-3.405-7.608-7.608-7.608c-4.202,0-7.608,3.406-7.608,7.608
	v57.816C137.303,116.836,140.709,120.242,144.91,120.242z"/>
<g>
</g>
<g>
</g>
<g>
</g>
<g>
</g>
<g>
</g>
<g>
</g>
<g>
</g>
<g>
</g>
<g>
</g>
<g>
</g>
<g>
</g>
<g>
</g>
<g>
</g>
<g>
</g>
<g>
</g>
</svg>
